<svg width="34" height="23" viewBox="0 0 34 23" fill="none" xmlns="http://www.w3.org/2000/svg">
<path d="M-0.000488281 1.875C-0.000488281 0.839648 1.08706 0 2.42808 0H31.5709C32.9142 0 33.9995 0.839648 33.9995 1.875C33.9995 2.91211 32.9142 3.75 31.5709 3.75H2.42808C1.08706 3.75 -0.000488281 2.91211 -0.000488281 1.875ZM-0.000488281 11.25C-0.000488281 10.2129 1.08706 9.375 2.42808 9.375H31.5709C32.9142 9.375 33.9995 10.2129 33.9995 11.25C33.9995 12.2871 32.9142 13.125 31.5709 13.125H2.42808C1.08706 13.125 -0.000488281 12.2871 -0.000488281 11.25ZM31.5709 22.5H2.42808C1.08706 22.5 -0.000488281 21.6621 -0.000488281 20.625C-0.000488281 19.5879 1.08706 18.75 2.42808 18.75H31.5709C32.9142 18.75 33.9995 19.5879 33.9995 20.625C33.9995 21.6621 32.9142 22.5 31.5709 22.5Z" fill="#D0CECF"/>
</svg>
