<svg width="30" height="30" viewBox="0 0 30 30" fill="none" xmlns="http://www.w3.org/2000/svg">
<path d="M4.39453 30H25.6055C28.0286 30 30 28.0286 30 25.6055V4.39453C30 1.97136 28.0286 0 25.6055 0H4.39453C1.97136 0 0 1.97136 0 4.39453V25.6055C0 28.0286 1.97136 30 4.39453 30ZM1.75781 4.39453C1.75781 2.94067 2.94067 1.75781 4.39453 1.75781H25.6055C27.0593 1.75781 28.2422 2.94067 28.2422 4.39453V25.6055C28.2422 27.0593 27.0593 28.2422 25.6055 28.2422H4.39453C2.94067 28.2422 1.75781 27.0593 1.75781 25.6055V4.39453Z" fill="#D0CECF"/>
<path d="M15.5 23C19.6354 23 23 19.6354 23 15.5C23 11.3646 19.6354 8 15.5 8C11.3646 8 8 11.3646 8 15.5C8 19.6354 11.3646 23 15.5 23ZM15.5 9.66667C18.7166 9.66667 21.3333 12.2834 21.3333 15.5C21.3333 18.7166 18.7166 21.3333 15.5 21.3333C12.2834 21.3333 9.66667 18.7166 9.66667 15.5C9.66667 12.2834 12.2834 9.66667 15.5 9.66667Z" fill="#D0CECF"/>
<path d="M24 9C25.6542 9 27 7.65417 27 6C27 4.34583 25.6542 3 24 3C22.3458 3 21 4.34583 21 6C21 7.65417 22.3458 9 24 9ZM24 5C24.5513 5 25 5.4487 25 6C25 6.5513 24.5513 7 24 7C23.4487 7 23 6.5513 23 6C23 5.4487 23.4487 5 24 5Z" fill="#D0CECF"/>
</svg>
