<svg width="60" height="60" viewBox="0 0 60 60" fill="none" xmlns="http://www.w3.org/2000/svg">
<path d="M29.9863 59.1105C46.0711 59.1105 59.1104 46.0773 59.1104 30.0001C59.1104 13.9228 46.0711 0.889648 29.9863 0.889648C13.9016 0.889648 0.862305 13.9228 0.862305 30.0001C0.862305 46.0773 13.9016 59.1105 29.9863 59.1105Z" fill="#B498A7"/>
<path d="M29.9864 60C24.0535 59.9973 18.2547 58.2356 13.323 54.9375C8.39132 51.6394 4.54827 46.9531 2.27972 41.4711C0.01118 35.9891 -0.580977 29.9575 0.578115 24.139C1.73721 18.3204 4.5955 12.9762 8.79162 8.782C12.9877 4.58779 18.3332 1.73192 24.1523 0.575461C29.9714 -0.580993 36.0027 0.0138991 41.4837 2.28493C46.9646 4.55595 51.6492 8.40114 54.945 13.3343C58.2409 18.2675 60 24.0671 60 30C59.9892 37.9555 56.8232 45.5819 51.1965 51.2061C45.5698 56.8302 37.9419 59.9928 29.9864 60ZM29.9864 1.78456C24.4052 1.78725 18.9501 3.4448 14.3109 6.54762C9.67164 9.65045 6.05661 14.0592 3.92289 19.2165C1.78916 24.3737 1.23255 30.0478 2.32344 35.5214C3.41432 40.995 6.10371 46.0222 10.0516 49.9674C13.9994 53.9125 19.0284 56.5985 24.5027 57.6857C29.977 58.7729 35.6508 58.2125 40.8066 56.0753C45.9624 53.9381 50.3687 50.3201 53.4684 45.6788C56.5681 41.0374 58.222 35.5812 58.2209 30C58.2108 22.5161 55.2324 15.3418 49.9392 10.0512C44.646 4.76051 37.4703 1.7856 29.9864 1.77912V1.78456Z" fill="#F4EAEF"/>
<path fill-rule="evenodd" clip-rule="evenodd" d="M20.1115 43.4766C20.136 43.5827 20.155 43.6888 20.1741 43.7894C20.2698 44.2336 20.2425 44.6954 20.0952 45.1251C19.9431 45.5292 19.6869 45.8858 19.3525 46.1589C19.0155 46.4257 18.5931 46.561 18.1637 46.5397C17.6323 46.5297 17.116 46.3611 16.6811 46.0555C16.4822 45.9035 16.316 45.7128 16.1926 45.495C16.0692 45.2771 15.9911 45.0366 15.963 44.7878C15.909 44.3213 16.0249 43.851 16.2894 43.463C16.4168 43.2892 16.5797 43.1444 16.7673 43.0384C16.9549 42.9324 17.1629 42.8676 17.3776 42.8482C17.9772 42.7883 18.5826 42.8608 19.1512 43.0604C19.4801 43.1689 19.798 43.3082 20.1006 43.4766H20.1115ZM21.0718 44.1132C22.179 44.9293 23.093 45.8433 24.1295 46.7465C24.9156 47.4293 25.3863 47.7448 26.1153 47.9679C26.9984 48.2095 27.907 48.3455 28.8221 48.3732C30.7849 48.5236 32.7486 48.0941 34.4695 47.1382C35.3999 46.6676 36.3901 46.0827 37.2878 45.5903C38.1331 45.1048 39.0198 44.6951 39.9374 44.3662C40.9144 44.0433 41.9148 43.7959 42.9298 43.6262C43.8392 43.4514 44.7655 43.3803 45.6909 43.414C46.5675 43.4574 47.4349 43.6119 48.2725 43.8738C48.8002 44.0617 49.3178 44.2769 49.8231 44.5185C50.1251 44.6355 50.2149 44.5783 50.2257 44.4668C50.2366 44.3553 50.1713 44.1948 49.8966 43.9227C49.4236 43.483 48.8457 43.172 48.2181 43.0196C47.0616 42.7304 45.8738 42.5851 44.6817 42.587C43.5076 42.5748 42.3361 42.7008 41.1915 42.9625C40.1491 43.2023 39.133 43.5449 38.1583 43.9853C37.3798 44.3575 36.6216 44.7707 35.8868 45.2231C35.2005 45.6269 34.4942 45.9956 33.7704 46.3275C33.1531 46.6036 32.5097 46.8168 31.8498 46.9641C31.0871 47.1385 30.3107 47.2468 29.5293 47.2878C28.7094 47.3428 27.8857 47.286 27.081 47.1191C26.4984 46.9698 25.9461 46.7203 25.4488 46.3819C25.0597 46.1304 24.6905 45.8494 24.3444 45.5413C23.9418 45.1904 23.4249 44.7252 22.9842 44.3199C22.5764 43.9426 22.1418 43.5953 21.6839 43.2807C21.439 43.1148 21.1697 42.9842 20.8841 42.8237C20.8051 42.5074 20.6892 42.2015 20.5386 41.9124C20.2946 41.4938 19.9611 41.1343 19.562 40.8596C19.1578 40.5336 18.6966 40.2854 18.2018 40.1279C17.4779 39.9254 16.7309 39.8175 15.9793 39.8069C15.1619 39.7993 14.3447 39.8347 13.531 39.9129C12.6877 39.9755 11.8008 40.0299 10.6855 40.0272C9.51535 40.0295 8.34615 39.9604 7.18441 39.8205C6.35583 39.7328 5.54767 39.5076 4.79322 39.154C4.29813 38.9308 3.87377 38.5761 3.56634 38.1284C3.47469 37.9769 3.41531 37.8081 3.39191 37.6325C3.3685 37.457 3.38158 37.2785 3.43033 37.1083C3.46429 36.9371 3.5352 36.7754 3.6381 36.6344C3.74099 36.4935 3.8734 36.3767 4.02608 36.2922C4.48976 36.0656 4.98984 35.9229 5.50323 35.8705C6.09171 35.7761 6.6923 35.7871 7.2769 35.9032C8.0367 36.0824 8.77737 36.3347 9.48854 36.6567C10.223 37.0132 10.9877 37.3036 11.7736 37.5245C12.5779 37.6981 13.4059 37.7331 14.2219 37.6279C14.9642 37.5404 15.6894 37.3433 16.3737 37.043C16.8963 36.7981 17.3992 36.5135 17.8781 36.1915C18.1801 35.9929 18.2263 35.9712 18.2018 35.8814C18.1552 35.7499 18.0892 35.6261 18.006 35.5141C17.9216 35.3944 17.8427 35.3101 17.4619 35.4815C17.081 35.6529 16.4118 36.0773 15.7861 36.3493C15.2112 36.5991 14.5973 36.7473 13.9717 36.7873C13.3933 36.8326 12.8117 36.8189 12.2361 36.7465C11.786 36.6804 11.3496 36.5416 10.9439 36.3357C10.4407 36.1072 9.73881 35.759 9.03968 35.4625C8.30714 35.126 7.51845 34.9286 6.71379 34.8803C5.74226 34.8168 4.76905 34.9759 3.8683 35.3455C3.56548 35.4904 3.29572 35.6961 3.07576 35.9498C2.85581 36.2034 2.69038 36.4996 2.58974 36.8199C2.42483 37.2552 2.40386 37.732 2.52989 38.1801C2.68115 38.608 2.93305 38.9934 3.26439 39.3036C3.67462 39.7408 4.17112 40.0882 4.72249 40.3237C5.5106 40.6046 6.33531 40.7695 7.1708 40.8134C8.19366 40.9086 9.44502 40.9657 10.6447 40.9576C11.8444 40.9494 12.9869 40.8759 14.1322 40.8052C15.2774 40.7345 16.4227 40.6692 17.3449 40.8487C18.1473 40.9788 18.8782 41.3871 19.4097 42.0022C19.4532 42.0566 19.4967 42.111 19.5348 42.1681C19.1417 42.0229 18.7309 41.9314 18.3134 41.8961C17.7181 41.843 17.1187 41.9277 16.5614 42.1436C16.0776 42.3413 15.6657 42.682 15.3808 43.1202C15.1385 43.508 14.9851 43.9447 14.932 44.3988C14.8652 44.7777 14.897 45.1674 15.0244 45.5305C15.1817 45.9116 15.416 46.2561 15.7127 46.5424C16.0382 46.8907 16.4317 47.1684 16.8688 47.3585C17.3851 47.5706 17.949 47.6393 18.5011 47.5571C19.1271 47.4706 19.7123 47.1965 20.1795 46.7709C20.5759 46.3464 20.8413 45.8165 20.9439 45.2448C21.0361 44.8747 21.0827 44.4946 21.0827 44.1132H21.0718Z" fill="#F4EAEF"/>
<path fill-rule="evenodd" clip-rule="evenodd" d="M35.9304 29.2274C35.5748 29.4318 35.2512 29.6875 34.9702 29.9863C34.7335 30.2421 34.6981 30.4107 34.9429 30.6256C35.1878 30.8405 35.7454 31.0962 36.4963 31.5342C37.2471 31.9722 38.2046 32.587 38.9446 33.0712C39.6845 33.5554 40.2313 33.9009 40.623 34.1213C40.9033 34.2978 41.2175 34.4136 41.5452 34.4613C41.7944 34.4975 42.0483 34.4808 42.2906 34.4123C42.443 34.3498 42.4321 34.2491 42.3124 34.0315C42.0513 33.5912 41.7174 33.1985 41.3249 32.8699C40.6802 32.2633 39.6138 31.3873 38.7487 30.7263C38.1275 30.2365 37.479 29.7824 36.8064 29.3661C36.3902 29.1185 36.2215 29.0723 35.925 29.2246L35.9304 29.2274ZM37.1655 27.0919C36.852 27.3563 36.5948 27.681 36.4092 28.0467C36.246 28.3433 36.2351 28.4684 36.3466 28.5908C36.6051 28.7718 36.878 28.931 37.1628 29.0669C37.6279 29.3389 38.3243 29.7578 39.0262 30.2284C39.7223 30.6839 40.3851 31.1884 41.0093 31.7382C41.4918 32.1735 41.9226 32.6628 42.2933 33.1963C42.4707 33.4693 42.628 33.7548 42.7639 34.0505C42.8483 34.2002 42.9054 34.2138 43.0169 34.1349C43.2157 33.9763 43.3804 33.7792 43.5012 33.5554C43.7198 33.1992 43.9021 32.8219 44.0452 32.4292C44.1404 32.1245 44.0942 32.013 43.561 31.4907C43.0278 30.9684 41.9968 30.0435 40.9794 29.2274C40.1305 28.5638 39.244 27.9498 38.3243 27.3884C37.6959 27.013 37.4484 26.9123 37.1682 27.0973L37.1655 27.0919ZM38.2536 25.2856C37.9878 25.5247 37.7643 25.8071 37.5926 26.1207C37.4565 26.3683 37.4674 26.4689 38.0414 26.7845C38.6154 27.1001 39.7471 27.6251 40.6638 28.2372C41.4353 28.7552 42.1303 29.3787 42.7286 30.0897C43.0294 30.4597 43.3022 30.8516 43.5447 31.2622C43.7025 31.4961 43.8031 31.575 43.9663 31.5097C44.2209 31.3679 44.4145 31.1375 44.5104 30.8623C44.6639 30.4781 44.7308 30.0647 44.7063 29.6517C44.6736 29.3199 44.5267 29.173 44.1459 28.8356C43.765 28.4983 43.1475 27.9379 42.4838 27.4102C41.8524 26.9046 41.1949 26.4325 40.5142 25.9956C40.0582 25.6923 39.5734 25.4344 39.067 25.2257C38.7079 25.0952 38.493 25.0952 38.2455 25.291L38.2536 25.2856ZM40.4299 24.8993C41.0264 24.8679 41.6243 24.8752 42.2199 24.9211C42.6521 24.9156 43.0812 24.996 43.4821 25.1577C43.9046 25.3513 44.2917 25.6143 44.6274 25.9357C44.9068 26.1748 45.092 26.5056 45.1497 26.8688C45.1624 27.1771 45.0714 27.4807 44.8913 27.7312C44.7573 27.9411 44.5869 28.1254 44.388 28.2752C44.2465 28.3705 44.1677 28.3569 43.7705 28.0032C43.3733 27.6496 42.6524 26.9395 41.9778 26.4118C41.3031 25.8841 40.6774 25.5359 40.3456 25.2992C40.0137 25.0625 40.011 24.9483 40.4136 24.9047L40.4299 24.8993ZM39.9049 22.2878C39.5585 22.6837 39.2675 23.1248 39.0398 23.599C38.8548 23.958 38.833 24.0478 39.135 24.1049C39.437 24.1621 40.0681 24.1838 40.8597 24.279C41.6513 24.3743 42.6035 24.5511 43.2346 24.6708C43.8657 24.7905 44.1649 24.8911 44.3798 24.9428C44.5947 24.9945 44.7144 25.0217 44.7824 24.9428C44.8505 24.8639 44.8613 24.7034 44.8505 24.445C44.8349 24.1245 44.7621 23.8094 44.6355 23.5146C44.4724 23.154 44.2286 22.8357 43.9228 22.5843C43.5964 22.3348 43.2078 22.1795 42.7993 22.1354C42.2193 22.0447 41.6342 21.9901 41.0474 21.9722C40.5333 21.945 40.2204 21.9668 39.8885 22.2932L39.9049 22.2878ZM40.8706 19.6762C40.5922 20.0821 40.375 20.5266 40.2259 20.9956C40.0899 21.3656 40.0572 21.4907 40.1633 21.5641C40.2694 21.6376 40.5169 21.6594 41.1508 21.6349C41.7846 21.6104 42.8075 21.5451 43.3271 21.4907C43.8466 21.4363 43.8358 21.39 43.7351 21.1643C43.5807 20.8195 43.393 20.4906 43.1747 20.1822C42.9537 19.8636 42.6773 19.5871 42.3586 19.3661C42.1626 19.2484 41.9289 19.2104 41.7057 19.26C41.5418 19.2647 41.3808 19.3049 41.2339 19.3776C41.0869 19.4504 40.9574 19.5541 40.8543 19.6817L40.8706 19.6762ZM41.246 17.8318C41.1338 18.0775 41.0604 18.339 41.0284 18.6071C40.9876 18.8193 40.9767 18.852 41.1345 18.8792C41.2922 18.9064 41.616 18.8955 41.8581 18.8955C42.1002 18.8955 42.258 18.8955 42.3178 18.8275C42.3777 18.7595 42.3477 18.6262 42.2226 18.4412C42.0758 18.2283 41.9 18.0369 41.7003 17.8726C41.499 17.7257 41.3412 17.6686 41.2297 17.8373L41.246 17.8318ZM35.4299 24.3307C35.9589 23.518 36.4464 22.6791 36.8907 21.8171C37.4306 20.7119 37.9066 19.5766 38.3162 18.4167C38.7025 17.3476 38.9854 16.4499 39.1704 15.9929C39.3554 15.5359 39.4424 15.5277 39.6981 15.7698C40.0353 16.1045 40.3329 16.477 40.5849 16.8797C40.8026 17.2578 40.8271 17.5135 40.6176 18.3351C40.2894 19.5735 39.8618 20.7835 39.339 21.9532C38.7025 23.3732 37.8728 24.8313 37.1818 26.0337C36.4908 27.2361 35.9413 28.1964 35.5768 28.7214C35.2123 29.2464 35.0327 29.3498 34.9429 28.9744C34.8568 28.3234 34.8358 27.6654 34.8804 27.0103C34.9076 26.2758 34.9647 25.6501 35.0164 25.2992C35.0681 24.9483 35.1143 24.8503 35.4299 24.3307ZM37.4974 14.3063C37.8965 14.4165 38.2712 14.6011 38.6018 14.8503C38.9065 15.0788 38.9854 15.2584 38.8004 15.9221C38.6154 16.5859 38.1638 17.7285 37.6198 19.0805C37.0757 20.4325 36.4364 21.9912 36.0529 22.7774C35.6693 23.5636 35.5496 23.5745 35.487 23.3215C35.4226 22.8237 35.3999 22.3214 35.419 21.8199C35.419 21.0826 35.4027 20.1305 35.4489 19.5728C35.4952 19.0152 35.5931 18.8628 35.8923 18.1039C36.1916 17.3449 36.684 15.9902 36.9397 15.2149C37.1954 14.4396 37.2226 14.2654 37.4974 14.3144V14.3063ZM34.6791 13.7214C34.6519 14.377 34.7172 15.6447 34.758 16.6566C34.7988 17.6686 34.8069 18.4167 34.9157 18.7377C35.0246 19.0587 35.2232 18.9444 35.5931 18.0821C35.9631 17.2197 36.5044 15.6011 36.7547 14.766C37.005 13.9308 36.975 13.8737 36.6268 13.7051C36.1712 13.4866 35.7024 13.2968 35.2231 13.1365C34.8423 13.0114 34.7063 13.0576 34.6791 13.7214ZM32.0621 13.6942C32.0621 12.606 32.258 12.5598 32.5899 12.6876C33.0236 12.8771 33.4066 13.166 33.7079 13.531C34.0344 13.9281 34.2248 14.4123 34.3254 15.3754C34.4261 16.3384 34.437 17.7883 34.4533 20.3128C34.4696 22.8373 34.4941 26.4417 34.4533 28.248C34.4125 30.0543 34.2955 30.0652 33.931 29.8476C33.4438 29.5545 33.0051 29.1874 32.6307 28.7595C32.3097 28.3487 32.2879 27.9787 32.3151 26.352C32.3423 24.7252 32.4212 21.8416 32.3559 19.3498C32.2906 16.8579 32.0675 14.7633 32.0621 13.686V13.6942ZM29.3907 14.1566C29.339 12.9243 29.3173 12.6033 29.5322 12.4428C29.834 12.2966 30.1771 12.2591 30.5033 12.3367C30.8107 12.3911 30.9794 12.4972 31.1481 12.9107C31.3167 13.3242 31.4854 14.0397 31.6132 15.4216C31.7411 16.8035 31.8336 18.8438 31.9043 20.9194C31.9751 22.995 32.0349 25.106 32.0349 26.3302C32.0349 27.5544 31.9778 27.889 31.8282 28.0114C31.6785 28.1338 31.4283 28.0467 31.0909 27.772C30.6932 27.4436 30.3554 27.0487 30.0926 26.6049C29.8559 26.1724 29.8205 25.7671 29.7607 24.6164C29.7008 23.4657 29.6546 21.5696 29.5866 19.5511C29.5186 17.5326 29.4424 15.3808 29.4016 14.1485L29.3907 14.1566ZM26.9424 15.3808C26.8983 14.6738 26.9211 13.9643 27.0104 13.2616C27.1111 12.7829 27.326 12.6931 27.5899 12.6496C27.854 12.599 28.1259 12.6064 28.3869 12.6713C28.4995 12.708 28.6001 12.7744 28.6781 12.8634C28.7562 12.9524 28.8088 13.0609 28.8303 13.1773C28.9834 13.7633 29.0566 14.3672 29.048 14.9727C29.0888 15.9929 29.0888 17.5652 29.1541 19.3824C29.2193 21.1996 29.3581 23.2644 29.4261 24.4205C29.4941 25.5767 29.4778 25.8242 29.3499 25.8813C29.2221 25.9385 28.9718 25.8024 28.7134 25.476C28.4144 25.0741 28.1821 24.6268 28.0251 24.1512C27.8619 23.6697 27.8048 23.2208 27.6579 22.1273C27.511 21.0337 27.277 19.2927 27.1437 18.0739C27.0104 16.8552 26.9723 16.1534 26.9533 15.3726L26.9424 15.3808ZM24.641 13.939C24.8438 13.681 25.0963 13.4664 25.3836 13.3079C25.5436 13.1963 25.7327 13.1339 25.9277 13.1283C26.0556 13.1283 26.1508 13.1991 26.2242 13.4004C26.3371 13.8136 26.3956 14.2397 26.3983 14.6681C26.45 15.4189 26.499 16.5913 26.6051 17.7638C26.7112 18.9363 26.8771 20.1088 27.0567 21.0826C27.2362 22.0565 27.4321 22.8291 27.5273 23.3133C27.6225 23.7975 27.6171 23.9853 27.5273 24.0669C27.4375 24.1485 27.2552 24.1213 26.8717 23.7622C26.4881 23.4031 25.8652 22.7121 25.4625 22.2442C25.1895 21.96 24.9503 21.645 24.7498 21.3057C24.6356 21.0854 24.6084 20.8895 24.5893 20.2638C24.5703 19.6381 24.5567 18.5826 24.5431 17.5843C24.5295 16.5859 24.505 15.6256 24.505 15.0299C24.505 14.4341 24.4832 14.1784 24.6464 13.9308L24.641 13.939ZM21.9995 17.6278C21.8994 17.0055 21.8548 16.3755 21.8662 15.7453C21.8662 15.2992 21.8662 15.2475 21.9995 15.0843C22.2242 14.8266 22.4843 14.6022 22.7721 14.4178C23.0944 14.207 23.4491 14.0508 23.8222 13.9553C24.0697 13.9064 24.1187 13.9961 24.1432 14.3797C24.1677 14.7633 24.1595 15.4434 24.1649 16.3329C24.1704 17.2225 24.1867 18.3215 24.2057 19.1158C24.2371 19.6204 24.2371 20.1265 24.2057 20.6311C24.1704 20.865 24.0752 20.8405 23.8004 20.5141C23.5257 20.1876 23.0714 19.5511 22.7123 19.0614C22.37 18.6409 22.1281 18.1478 22.005 17.6196L21.9995 17.6278ZM20.8053 16.3166C20.7863 16.1452 21.0039 15.8813 21.1726 15.7535C21.3412 15.6256 21.4446 15.6283 21.5072 15.7916C21.551 16.0059 21.5529 16.2267 21.5126 16.4417C21.4718 16.6104 21.4174 16.6267 21.2596 16.5968C21.1018 16.5669 20.8298 16.4798 20.8107 16.3084L20.8053 16.3166ZM32.2308 38.5554C32.7204 38.8139 33.6073 39.2845 34.2928 39.6164C34.769 39.8161 35.2316 40.0469 35.6774 40.3073C35.8978 40.4733 35.8515 40.6202 35.5877 40.7317C35.2355 40.8511 34.8701 40.9269 34.4995 40.9575C34.2273 41.0158 33.9431 40.965 33.7079 40.816C33.3975 40.5761 33.1146 40.3023 32.8646 39.9999C32.5627 39.6626 32.2471 39.3035 32.0295 39.0016C31.8734 38.807 31.7519 38.5871 31.6704 38.3514C31.6595 38.2453 31.7493 38.2888 32.2362 38.5473L32.2308 38.5554ZM27.5382 35.1604C28.0169 35.5032 28.8467 36.2323 29.4751 36.7926C30.0613 37.2928 30.6071 37.8386 31.1073 38.4249C31.6894 39.1104 32.4321 40.0979 32.802 40.6011C33.172 41.1044 33.172 41.1615 33.0033 41.2513C32.7353 41.3878 32.4468 41.4797 32.1492 41.5233C31.8073 41.5658 31.4602 41.5295 31.1345 41.4172C30.7415 41.268 30.4042 41.001 30.1687 40.6528C29.7716 40.1659 29.2302 39.3579 28.7215 38.5772C28.2128 37.7965 27.7259 37.0456 27.413 36.5016C27.1931 36.1518 27.0107 35.7798 26.869 35.3917C26.7955 35.1604 26.7955 35.038 26.869 34.9537C26.9424 34.8694 27.0675 34.8095 27.5436 35.1523L27.5382 35.1604ZM23.8004 37.0647C23.6372 37.4292 23.425 38.1039 23.2563 38.5364C23.1444 38.7943 23.0534 39.0609 22.9843 39.3335C22.9598 39.5076 23.0169 39.6626 23.3325 39.8993C23.7909 40.2119 24.275 40.485 24.7797 40.7154C25.2444 40.9476 25.7264 41.1431 26.2215 41.3003C26.5534 41.39 26.6649 41.3438 26.7057 41.2486C26.7465 41.1534 26.7057 41.0065 26.4527 40.5631C26.1998 40.1196 25.7101 39.3797 25.3646 38.7921C25.0191 38.2045 24.8205 37.7638 24.6464 37.4319C24.5393 37.1785 24.3862 36.947 24.1949 36.7491C24.0806 36.6403 23.9609 36.6947 23.8058 37.0592L23.8004 37.0647ZM22.3586 30.9765C22.3586 31.2486 22.549 31.8987 23.0414 33.1202C23.5338 34.3416 24.3336 36.1398 25.1361 37.6387C25.7532 38.7973 26.4513 39.9109 27.2253 40.9711C27.7014 41.6104 27.8483 41.6893 28.2346 41.7328C28.6209 41.7763 29.252 41.7899 29.5948 41.7954C29.9375 41.8008 29.9946 41.7954 30.0218 41.7219C30.0538 41.5851 30.0482 41.4423 30.0055 41.3084C29.9054 40.9943 29.7517 40.6997 29.5512 40.4379C29.2302 39.951 28.6807 39.1757 28.1094 38.278C27.5382 37.3802 26.9397 36.3737 26.5208 35.5576C26.1018 34.7415 25.8515 34.1974 25.6557 33.8057C25.5033 33.4789 25.2781 33.1914 24.9974 32.9651C24.6845 32.6931 24.2003 32.3476 23.7977 31.994C23.3951 31.6403 23.0659 31.2812 22.8102 31.0446C22.5545 30.8079 22.3641 30.7018 22.3641 30.9711L22.3586 30.9765ZM18.4386 35.1305C18.6536 35.6306 18.9208 36.1065 19.2357 36.5505C19.4527 36.8727 19.7137 37.1629 20.011 37.4129C20.0446 37.4541 20.0864 37.488 20.1338 37.5123C20.1812 37.5366 20.233 37.5509 20.2862 37.5542C20.3393 37.5575 20.3925 37.5498 20.4425 37.5316C20.4926 37.5134 20.5383 37.485 20.5768 37.4483C20.8644 37.2233 21.1328 36.9749 21.3793 36.7056C21.5643 36.5152 21.5643 36.5152 21.5316 36.6213C21.499 36.7274 21.431 36.9423 21.3412 37.2116C21.2514 37.4809 21.1399 37.8073 21.0692 38.0277C21.029 38.1297 21.0232 38.242 21.0526 38.3475C21.0821 38.4531 21.1452 38.5461 21.2324 38.6126C21.5052 38.868 21.813 39.0832 22.1464 39.2518C22.4185 39.3688 22.4838 39.3008 22.6905 38.7921C22.8973 38.2834 23.2699 37.3258 23.4767 36.7165C23.6834 36.1071 23.7487 35.8351 23.6753 35.5358C23.5532 35.1638 23.3889 34.8069 23.1856 34.4722C22.9544 34.0288 22.6851 33.4657 22.4566 33.2644C22.228 33.0631 22.0349 33.2208 21.3684 33.4765C20.7019 33.7323 19.5567 34.0941 18.95 34.3471C18.3434 34.6 18.2999 34.7551 18.4386 35.1305ZM17.0023 32.587C17.1066 32.9588 17.2924 33.3026 17.5463 33.5935C17.8184 33.8329 18.1421 33.8465 18.9255 33.6724C19.8289 33.4665 20.7184 33.2039 21.5888 32.8862C22.228 32.6332 22.2716 32.4863 22.1981 32.1327C22.0979 31.7147 21.9726 31.3032 21.8227 30.9004C21.7112 30.5794 21.6785 30.5005 21.3004 30.5903C20.9223 30.68 20.2123 30.9385 19.4152 31.2132C18.6181 31.488 17.7585 31.779 17.3314 31.9831C16.9043 32.1871 16.907 32.2959 17.0023 32.587ZM16.1317 29.5756C16.2372 29.2685 16.4562 29.0135 16.7438 28.8628C17.2372 28.5958 17.7556 28.378 18.2917 28.2127C18.8086 28.0386 19.203 27.9243 19.5567 28.0032C19.9455 28.1307 20.2874 28.3713 20.5387 28.6942C20.8283 29.0074 21.0879 29.3471 21.314 29.7089C21.4582 29.9673 21.4364 30.068 21.129 30.1686C20.5633 30.3157 19.9891 30.4283 19.4098 30.5059C18.5937 30.6419 17.5627 30.8106 16.9615 30.778C16.3603 30.7453 16.2106 30.476 16.1454 30.2339C16.0641 30.0228 16.0593 29.7899 16.1317 29.5756ZM18.7297 26.6811C18.8801 26.8696 18.9978 27.0821 19.0779 27.3095C19.1132 27.4891 18.999 27.6006 18.6698 27.723C18.2322 27.88 17.7739 27.9716 17.3097 27.995C16.9042 28.0152 16.4995 27.9427 16.1263 27.7829C15.8543 27.6523 15.7427 27.5108 15.7482 27.3449C15.7536 27.1789 15.8788 27.0484 16.1263 26.8226C16.3739 26.5968 16.7438 26.2948 17.0403 26.0554C17.3369 25.816 17.5626 25.6338 17.783 25.661C18.0242 25.7425 18.2299 25.9049 18.3652 26.1207C18.5202 26.322 18.5964 26.4771 18.7297 26.6811ZM16.5833 24.6028C16.3186 24.7425 16.0727 24.9153 15.8516 25.1169C15.6883 25.2856 15.6883 25.408 15.9304 25.476C16.2698 25.5432 16.6174 25.5588 16.9615 25.5223C17.2716 25.4869 17.4049 25.408 17.4103 25.2094C17.3961 24.9657 17.3002 24.7338 17.1383 24.5511C16.9941 24.4096 16.8309 24.4613 16.5833 24.6028ZM18.1312 21.8063C17.9306 21.504 17.7049 21.2192 17.4566 20.9548C17.2825 20.8079 17.1845 20.8977 17.0077 21.2948C16.7722 21.8129 16.5696 22.3454 16.4011 22.889C16.2596 23.3786 16.2596 23.6479 16.4011 23.8275C16.5425 24.007 16.8064 24.0995 17.1655 24.3715C17.6962 24.812 18.1944 25.2902 18.6562 25.8024C19.3418 26.5152 20.264 27.4891 21.1726 28.4602C22.0811 29.4314 22.9789 30.3971 23.9854 31.3846C24.9919 32.3721 26.1018 33.3813 27.2906 34.3525C28.4776 35.323 29.7143 36.231 30.9957 37.0728C32.2416 37.8889 33.4658 38.5826 34.3934 39.0832C35.3211 39.5837 35.9468 39.8857 36.5996 39.8993C37.1903 39.9137 37.77 39.7383 38.2536 39.3987C38.5855 39.1267 38.5746 38.8547 38.3515 38.6697C38.1285 38.4847 37.6878 38.3514 36.7438 37.9624C35.3136 37.3782 33.9404 36.6634 32.6415 35.8269C30.7677 34.5878 28.9858 33.215 27.3097 31.7192C25.7913 30.3597 24.35 28.9166 22.9925 27.3966C21.6323 25.9058 20.2286 24.2899 19.4152 23.346C18.6018 22.402 18.3706 22.1245 18.1312 21.7981V21.8063ZM19.5267 19.63C19.3146 19.3362 18.999 18.8873 18.7106 18.8139C18.4223 18.7404 18.1502 19.0261 17.9653 19.3579C17.7973 19.6687 17.6936 20.0101 17.6606 20.3618C17.6443 20.6338 17.7123 20.778 18.3461 21.5179C18.98 22.2578 20.1823 23.5935 21.4011 24.9564C22.6198 26.3193 23.8494 27.7121 24.9375 28.852C25.9112 29.8842 26.9381 30.8649 28.0142 31.7899C29.0752 32.7067 30.264 33.6479 31.3467 34.4287C32.4293 35.2094 33.4087 35.8269 34.2955 36.3465C35.0717 36.8174 35.8777 37.2373 36.7085 37.6033C37.3303 37.8787 37.9849 38.0734 38.6562 38.1828C39.1201 38.2759 39.6013 38.2286 40.0382 38.0467C40.3713 37.8704 40.6618 37.6234 40.8896 37.3231C41.0637 37.1055 41.11 36.9912 41.1045 36.9151C41.0991 36.8389 41.042 36.7899 40.721 36.7736C40.0406 36.7599 39.3689 36.6188 38.7406 36.3574C37.2996 35.7632 35.9179 35.0346 34.6138 34.1811C33.1111 33.2012 31.6785 32.1177 30.3265 30.9385C28.8956 29.7089 27.413 28.3188 26.1426 27.0565C24.8722 25.7943 23.8195 24.6599 22.8265 23.5364C21.8336 22.4129 20.9005 21.303 20.3782 20.68C19.8559 20.0571 19.7416 19.902 19.5267 19.6109V19.63ZM20.3864 16.9096C20.0089 16.9067 19.6425 17.0378 19.3526 17.2796C19.2191 17.3867 19.1255 17.5357 19.087 17.7025C19.0485 17.8693 19.0673 18.0443 19.1405 18.1991C19.2874 18.569 19.6682 18.9961 20.6448 20.1033C21.6214 21.2105 23.1938 23.044 24.641 24.6381C26.0882 26.2323 27.4158 27.5952 28.5148 28.6833C29.6138 29.7714 30.4925 30.5875 31.2351 31.2187C31.938 31.8217 32.6805 32.377 33.4576 32.8808C34.3009 33.4249 35.3619 34.0587 36.2079 34.5511C36.9261 34.9869 37.6732 35.3732 38.444 35.7072C39.1253 35.9994 39.837 36.2147 40.5659 36.3492C40.9902 36.4501 41.4366 36.394 41.8227 36.1915C42.1141 36.0235 42.3576 35.7838 42.53 35.495C42.6524 35.2693 42.6307 35.1142 42.5082 35.0027C42.3163 34.8687 42.0893 34.794 41.8554 34.7878C41.3514 34.7589 40.857 34.6371 40.3973 34.4287C39.2708 33.9067 38.1803 33.3106 37.1328 32.6441C35.808 31.828 34.3254 30.8705 33.0523 29.8966C31.7922 28.9178 30.5921 27.864 29.4587 26.741C28.2237 25.5522 26.8309 24.1621 25.6502 22.8917C24.4696 21.6213 23.474 20.4814 22.7422 19.5701C22.0104 18.6588 21.5398 17.9896 21.2134 17.5516C20.8869 17.1137 20.6965 16.9232 20.3864 16.9015V16.9096Z" fill="#F4EAEF"/>
</svg>
