<svg width="18" height="18" viewBox="0 0 18 18" fill="none" xmlns="http://www.w3.org/2000/svg">
<path d="M17.5365 13.2762L15.2989 11.0385C14.682 10.4216 13.6781 10.4216 13.0612 11.0385L12.0441 12.0556C11.5767 12.523 10.8162 12.5228 10.349 12.0558L5.94045 7.64343C5.47199 7.17497 5.47192 6.41676 5.94045 5.94823C6.10428 5.7844 6.5747 5.31397 6.95755 4.93112C7.57177 4.31694 7.58035 3.31622 6.95696 2.6929L4.71989 0.462868C4.10297 -0.154019 3.09915 -0.154019 2.48388 0.46125C2.02347 0.917649 1.87497 1.06488 1.66853 1.26953C-0.55616 3.49418 -0.55616 7.11398 1.66843 9.33856L8.65371 16.3275C10.8836 18.5574 14.4927 18.5576 16.7228 16.3275L17.5365 15.5138C18.1535 14.8969 18.1535 13.8931 17.5365 13.2762ZM3.22814 1.20874C3.43377 1.00311 3.76831 1.00308 3.97461 1.20931L6.21168 3.43934C6.4178 3.64546 6.4178 3.97906 6.21168 4.18521L5.8387 4.55815L2.8571 1.57655L3.22814 1.20874ZM9.39972 15.5817L2.41441 8.59272C0.693225 6.87154 0.59862 4.1689 2.12345 2.33469L5.09641 5.30765C4.31524 6.1932 4.3478 7.5426 5.19439 8.3892L9.60286 12.8013C9.60282 12.8013 9.60289 12.8014 9.60286 12.8013C10.4485 13.6471 11.798 13.6819 12.6847 12.8996L15.6577 15.8727C13.8293 17.3949 11.1328 17.3147 9.39972 15.5817ZM16.7907 14.7679L16.4177 15.1409L13.4342 12.1573L13.8071 11.7844C14.0128 11.5788 14.3473 11.5787 14.553 11.7844L16.7907 14.022C16.9963 14.2277 16.9963 14.5623 16.7907 14.7679Z" fill="#D0CECF"/>
</svg>
