<svg width="50" height="50" viewBox="0 0 50 50" fill="none" xmlns="http://www.w3.org/2000/svg">
<path d="M25 46.875C19.1983 46.875 13.6344 44.5703 9.53205 40.468C5.42968 36.3656 3.125 30.8017 3.125 25C3.125 19.1983 5.42968 13.6344 9.53205 9.53205C13.6344 5.42968 19.1983 3.125 25 3.125C30.8017 3.125 36.3656 5.42968 40.468 9.53205C44.5703 13.6344 46.875 19.1983 46.875 25C46.875 30.8017 44.5703 36.3656 40.468 40.468C36.3656 44.5703 30.8017 46.875 25 46.875ZM25 50C31.6305 50 37.9892 47.3661 42.6777 42.6777C47.3661 37.9892 50 31.6305 50 25C50 18.3695 47.3661 12.0107 42.6777 7.32233C37.9892 2.63392 31.6305 0 25 0C18.3695 0 12.0107 2.63392 7.32233 7.32233C2.63392 12.0107 0 18.3695 0 25C0 31.6305 2.63392 37.9892 7.32233 42.6777C12.0107 47.3661 18.3695 50 25 50Z" fill="#51961B"/>
<path d="M25 12.5C25.4144 12.5 25.8118 12.6646 26.1048 12.9577C26.3979 13.2507 26.5624 13.6481 26.5624 14.0625V23.4376H35.9376C36.352 23.4376 36.7494 23.6021 37.0424 23.8952C37.3355 24.1882 37.5 24.5856 37.5 25C37.5 25.4144 37.3355 25.8118 37.0424 26.1048C36.7494 26.3979 36.352 26.5624 35.9376 26.5624H26.5624V35.9376C26.5624 36.352 26.3979 36.7494 26.1048 37.0424C25.8118 37.3355 25.4144 37.5 25 37.5C24.5856 37.5 24.1882 37.3355 23.8952 37.0424C23.6021 36.7494 23.4376 36.352 23.4376 35.9376V26.5624H14.0625C13.6481 26.5624 13.2507 26.3979 12.9577 26.1048C12.6646 25.8118 12.5 25.4144 12.5 25C12.5 24.5856 12.6646 24.1882 12.9577 23.8952C13.2507 23.6021 13.6481 23.4376 14.0625 23.4376H23.4376V14.0625C23.4376 13.6481 23.6021 13.2507 23.8952 12.9577C24.1882 12.6646 24.5856 12.5 25 12.5Z" fill="#51961B"/>
</svg>
