<svg width="30" height="30" viewBox="0 0 30 30" fill="none" xmlns="http://www.w3.org/2000/svg">
<path d="M7.25578 27.8593C9.57367 29.2541 12.2239 29.9892 14.9469 29.9892C23.1983 29.9892 30 23.256 30 14.9945C30 6.74263 23.2079 0 14.9469 0C6.71104 0 0.0107575 6.72661 0.0107575 14.9945C0.0107575 17.7539 0.746155 20.4243 2.14073 22.744L0 30L7.25578 27.8593ZM1.76811 14.9945C1.76811 7.69547 7.68013 1.75713 14.9469 1.75713C22.2782 1.75713 28.2429 7.69547 28.2429 14.9945C28.2429 22.2938 22.2782 28.2319 14.9469 28.2319C12.4242 28.2319 9.97261 27.5173 7.85797 26.1651L7.52014 25.9492L2.59895 27.4013L4.05075 22.4799L3.83492 22.1423C2.48268 20.0272 1.76811 17.5557 1.76811 14.9945Z" fill="#D0CECF"/>
<path d="M8.18617 12.5598C8.44952 14.0296 9.23129 16.8567 11.5074 19.2757C13.7835 21.6946 16.4437 22.5257 17.8269 22.8055C19.4108 23.126 21.7351 23.1744 22.871 21.9672L23.5042 21.2942C23.8239 20.9545 24 20.5027 24 20.0222C24 19.5416 23.8239 19.09 23.5042 18.7503L20.9718 16.059C20.652 15.7191 20.227 15.5321 19.7749 15.5321C19.3227 15.5321 18.8978 15.7191 18.5779 16.059L17.9449 16.7318C17.5582 17.1428 16.8281 17.1445 16.4385 16.7368L13.9125 13.9398C13.9088 13.9356 13.905 13.9314 13.9011 13.9274C13.5137 13.5157 13.5137 12.8458 13.9011 12.4342L14.5341 11.7614C15.1958 11.0582 15.1958 9.9203 14.5341 9.21728L12.0017 6.52594C11.3419 5.82469 10.2681 5.82469 9.60804 6.52594L8.97499 7.19894C8.06841 8.16264 7.76621 10.2165 8.18617 12.5598ZM10.1026 8.39728C10.7672 7.70706 10.7317 7.69381 10.805 7.69381C10.8301 7.69381 10.8552 7.70397 10.8744 7.72428C13.5428 10.5754 13.4356 10.4079 13.4356 10.4896C13.4356 10.518 13.4259 10.543 13.407 10.5633L12.7737 11.2361C11.7654 12.3077 11.7614 14.0424 12.7673 15.1189L15.2947 17.9177C15.2987 17.9217 15.3024 17.9259 15.3063 17.9301C16.3145 19.0015 18.061 19.005 19.0725 17.9301L19.7055 17.2573C19.7437 17.2167 19.806 17.2167 19.8442 17.2573C22.5127 20.1082 22.4055 19.9407 22.4055 20.0224C22.4055 20.0511 22.3958 20.0758 22.3769 20.0961L21.7436 20.7689C21.3097 21.23 19.9277 21.5059 18.1252 21.141C16.9222 20.8973 14.6091 20.1756 12.635 18.0775C10.6608 15.9795 9.98168 13.5213 9.7526 12.2428C9.40907 10.3271 9.66869 8.85816 10.1026 8.39728Z" fill="#D0CECF"/>
</svg>
